<svg height="1787" viewBox="0 0 283.5 202.6" width="2500" xmlns="http://www.w3.org/2000/svg" xmlns:xlink="http://www.w3.org/1999/xlink"><linearGradient id="a" gradientTransform="matrix(1 0 0 -1 0 204.08)" gradientUnits="userSpaceOnUse" x1="-.81" x2="283.908" y1="153.68" y2="153.68"><stop offset="0" stop-color="#00af9d"/><stop offset="1" stop-color="#46449b"/></linearGradient><path d="m283.1 79.2-34.1-59.1c1.4-2.5 4-6.8 4.3-7.5.5-.9 1-2.4 1-4 0-4.7-3.8-8.5-8.5-8.5s-8.5 3.8-8.5 8.5c0 1.3.3 2.6 1 4 .4.8 3.2 5.6 4.5 7.9l-31.6 54.7-31.8-55.1c1.4-2.5 4-6.9 4.4-7.6.5-.9 1-2.4 1-4 0-4.7-3.8-8.5-8.5-8.5s-8.5 3.8-8.5 8.5c0 1.3.3 2.6 1 4 .4.8 3.1 5.5 4.5 7.9l-31.6 54.8-31.8-55c1.4-2.5 4-7 4.4-7.7.5-.9 1-2.4 1-4 0-4.7-3.8-8.5-8.5-8.5s-8.5 3.8-8.5 8.5c0 1.3.3 2.6 1 4 .4.8 3.1 5.4 4.5 7.8l-31.6 54.9-31.7-54.9c1.4-2.5 4.1-7 4.4-7.7.5-.9 1-2.4 1-4 0-4.7-3.8-8.5-8.5-8.5s-8.5 3.8-8.5 8.5c0 1.3.3 2.6 1 4 .4.8 3 5.3 4.4 7.7l-34 58.9c-.7 1.3-.3 2.9 1 3.6s2.9.3 3.6-1l32.5-56.3 31.8 55c-1.4 2.4-4 7-4.4 7.7-.7 1.4-1 2.7-1 4 0 4.7 3.8 8.5 8.5 8.5s8.5-3.8 8.5-8.5c0-1.6-.6-3.1-1-4-.4-.7-3-5.3-4.4-7.7l31.7-54.9 31.7 54.9c-1.4 2.4-4.1 7-4.5 7.8-.7 1.4-1 2.7-1 4 0 4.7 3.8 8.5 8.5 8.5s8.5-3.8 8.5-8.5c0-1.6-.6-3.1-1-4-.4-.7-3-5.2-4.4-7.7l31.8-55 31.6 54.8c-1.4 2.4-4.1 7.1-4.5 7.9-.7 1.4-1 2.7-1 4 0 4.7 3.8 8.5 8.5 8.5s8.5-3.8 8.5-8.5c0-1.6-.6-3.1-1-4-.4-.7-2.9-5.1-4.4-7.6l31.8-55.1 32.5 56.3c.5.8 1.4 1.3 2.3 1.3.4 0 .9-.1 1.3-.4 1.1-.8 1.5-2.4.8-3.6zm-37.3-73.9c1.8 0 3.2 1.4 3.2 3.2 0 .5-.2 1.1-.5 1.7-.2.4-1.3 2.4-2.8 4.8-1.3-2.3-2.6-4.4-2.7-4.8-.3-.7-.5-1.2-.5-1.7.1-1.7 1.5-3.2 3.3-3.2zm-69.5 0c1.8 0 3.2 1.4 3.2 3.2 0 .5-.2 1.1-.5 1.7-.2.4-1.3 2.4-2.7 4.8-1.3-2.3-2.5-4.4-2.7-4.8-.3-.7-.5-1.2-.5-1.7 0-1.7 1.5-3.2 3.2-3.2zm-69.4 0c1.8 0 3.2 1.4 3.2 3.2 0 .5-.2 1.1-.5 1.7-.2.4-1.3 2.4-2.8 4.8-1.3-2.3-2.5-4.4-2.7-4.8-.3-.7-.5-1.2-.5-1.7.1-1.7 1.5-3.2 3.3-3.2zm-72.2 4.9c-.3-.7-.5-1.2-.5-1.7 0-1.8 1.4-3.2 3.2-3.2s3.2 1.4 3.2 3.2c0 .5-.2 1.1-.5 1.7-.2.4-1.3 2.4-2.7 4.8-1.3-2.3-2.5-4.4-2.7-4.8zm37.5 85.3c-1.8 0-3.2-1.4-3.2-3.2 0-.5.2-1 .5-1.7.2-.4 1.4-2.5 2.7-4.8 1.4 2.4 2.6 4.5 2.7 4.8.3.6.5 1.2.5 1.7 0 1.7-1.4 3.2-3.2 3.2zm69.5 0c-1.8 0-3.2-1.4-3.2-3.2 0-.5.2-1 .5-1.7.2-.4 1.4-2.5 2.7-4.8 1.4 2.4 2.6 4.5 2.7 4.8.3.6.5 1.2.5 1.7 0 1.7-1.5 3.2-3.2 3.2zm69.4 0c-1.8 0-3.2-1.4-3.2-3.2 0-.5.1-1 .5-1.7.2-.4 1.4-2.5 2.7-4.8 1.4 2.4 2.6 4.5 2.7 4.8.3.6.5 1.2.5 1.7 0 1.7-1.4 3.2-3.2 3.2z" fill="url(#a)"/><path d="m21.9 157.2 18.7 43.7h-5.1l-4.9-11.8h-17.8l-5 11.8h-5.1zm-7.2 27.6h14.1l-7-16.7zm85.5-28 15.1 35 15.2-35 8.4 44.1h-4.7l-5.4-28.2h-.1l-13.4 29.9-13.4-29.9h-.1l-5.4 28.2h-4.7zm98.4 2.4v41.7h-4.6v-41.7zm77 8.1c-.9-1.6-1.9-2.8-3.1-3.5-1.1-.7-2.5-1.1-4.1-1.1-2 0-3.7.6-5 1.9s-2 2.8-2 4.6c0 1.4.5 2.6 1.6 3.6s2.4 1.8 3.9 2.5 2.9 1.3 4.2 1.8c1.2.5 2.7 1.3 4.4 2.3s2.9 2.3 3.8 3.9c.9 1.5 1.3 3.3 1.3 5.3 0 2.3-.6 4.4-1.7 6.4s-2.7 3.6-4.7 4.7c-2 1.2-4.2 1.7-6.6 1.7-3.3 0-6.1-1-8.4-2.9s-3.9-4.6-4.6-7.9l4.5-1.3c.4 2.3 1.3 4.1 2.8 5.6 1.5 1.4 3.4 2.2 5.5 2.2 2.3 0 4.3-.8 6-2.4s2.5-3.5 2.5-5.8c0-2-.6-3.6-1.9-4.9s-3.6-2.6-7.1-4c-3.4-1.4-6-2.9-7.7-4.6s-2.6-3.9-2.6-6.6c0-3.1 1.1-5.6 3.4-7.6s5-3 8.2-3c2.4 0 4.4.6 6.3 1.7 1.8 1.1 3.3 2.7 4.5 4.8z" fill="#55565a"/></svg>