<svg viewBox="0 0 324.93 112.26" xmlns="http://www.w3.org/2000/svg"><g fill="#002"><path d="m215.56 38.13v13.09h7.83v3h-11.39v-16.09z"/><path d="m228.45 51.4a3.27 3.27 0 0 0 3.73.22 2 2 0 0 0 .86-1h2.81a5.28 5.28 0 0 1 -2.07 3 6 6 0 0 1 -3.37.91 6.72 6.72 0 0 1 -2.48-.44 5.17 5.17 0 0 1 -1.86-1.25 5.7 5.7 0 0 1 -1.19-1.94 7.23 7.23 0 0 1 -.41-2.47 6.89 6.89 0 0 1 .42-2.43 5.75 5.75 0 0 1 1.22-2 5.53 5.53 0 0 1 1.89-1.28 5.94 5.94 0 0 1 2.42-.47 5.52 5.52 0 0 1 2.58.57 5.24 5.24 0 0 1 1.82 1.54 6.4 6.4 0 0 1 1 2.21 8.45 8.45 0 0 1 .23 2.58h-8.4a3.23 3.23 0 0 0 .8 2.25zm3.61-6.12a2.23 2.23 0 0 0 -1.74-.63 2.78 2.78 0 0 0 -1.27.26 2.4 2.4 0 0 0 -.81.64 2.28 2.28 0 0 0 -.43.81 4.32 4.32 0 0 0 -.15.77h5.2a3.73 3.73 0 0 0 -.8-1.85z"/><path d="m237.81 46.14a3.56 3.56 0 0 1 1.82-3.06 5.37 5.37 0 0 1 1.72-.64 9.64 9.64 0 0 1 1.93-.19 13.38 13.38 0 0 1 1.77.12 5.37 5.37 0 0 1 1.65.48 3.29 3.29 0 0 1 1.21 1 2.78 2.78 0 0 1 .47 1.7v6.05a10.44 10.44 0 0 0 .1 1.51 2.58 2.58 0 0 0 .31 1.08h-3.24a4.94 4.94 0 0 1 -.15-.55 3.7 3.7 0 0 1 -.07-.57 4.24 4.24 0 0 1 -1.81 1.1 7.15 7.15 0 0 1 -2.11.32 5.53 5.53 0 0 1 -1.55-.21 3.4 3.4 0 0 1 -1.26-.63 2.94 2.94 0 0 1 -.85-1.08 3.66 3.66 0 0 1 -.3-1.55 3.31 3.31 0 0 1 .35-1.63 2.91 2.91 0 0 1 .9-1 4.26 4.26 0 0 1 1.26-.57 11.72 11.72 0 0 1 1.43-.3q.72-.12 1.41-.18a7.78 7.78 0 0 0 1.2-.24 2.22 2.22 0 0 0 .86-.39.87.87 0 0 0 .29-.75 1.7 1.7 0 0 0 -.17-.82 1.23 1.23 0 0 0 -.45-.48 1.85 1.85 0 0 0 -.65-.22 5.1 5.1 0 0 0 -.8-.06 2.46 2.46 0 0 0 -1.49.41 1.88 1.88 0 0 0 -.63 1.35zm7.38 2.36a1.47 1.47 0 0 1 -.51.28 5.59 5.59 0 0 1 -.68.22l-.73.11c-.25 0-.51.07-.76.12a5.8 5.8 0 0 0 -.72.17 2.12 2.12 0 0 0 -.6.31 1.62 1.62 0 0 0 -.42.48 1.65 1.65 0 0 0 -.15.74 1.54 1.54 0 0 0 .15.72 1.3 1.3 0 0 0 .43.47 1.75 1.75 0 0 0 .63.23 3.64 3.64 0 0 0 .74.07 2.8 2.8 0 0 0 1.46-.32 2.13 2.13 0 0 0 .77-.75 2.35 2.35 0 0 0 .3-.89 5.73 5.73 0 0 0 .06-.72z"/><path d="m259.12 52.71a3.33 3.33 0 0 1 -1.48 1.36 4.86 4.86 0 0 1 -2.06.42 5 5 0 0 1 -2.29-.51 4.72 4.72 0 0 1 -1.63-1.37 6.2 6.2 0 0 1 -1-2 8.27 8.27 0 0 1 -.33-2.34 7.82 7.82 0 0 1 .33-2.26 6 6 0 0 1 1-1.92 4.9 4.9 0 0 1 1.61-1.34 4.73 4.73 0 0 1 2.25-.5 4.63 4.63 0 0 1 2 .43 3.5 3.5 0 0 1 1.48 1.32v-5.87h3.2v16.06h-3v-1.48zm-.12-5.71a3.37 3.37 0 0 0 -.46-1.17 2.63 2.63 0 0 0 -.84-.82 2.49 2.49 0 0 0 -1.31-.32 2.62 2.62 0 0 0 -1.39.31 2.44 2.44 0 0 0 -.86.83 3.75 3.75 0 0 0 -.44 1.17 6.94 6.94 0 0 0 -.14 1.38 5.6 5.6 0 0 0 .16 1.35 3.55 3.55 0 0 0 .5 1.21 2.85 2.85 0 0 0 .88.85 2.35 2.35 0 0 0 1.27.33 2.55 2.55 0 0 0 1.32-.31 2.44 2.44 0 0 0 .84-.85 3.74 3.74 0 0 0 .45-1.2 7.15 7.15 0 0 0 .14-1.4 6.87 6.87 0 0 0 -.12-1.36z"/><path d="m272.5 38.13a10.4 10.4 0 0 1 2.1.2 4.56 4.56 0 0 1 1.62.66 3 3 0 0 1 1 1.23 4.27 4.27 0 0 1 .38 1.89 3.52 3.52 0 0 1 -.56 2 4 4 0 0 1 -1.63 1.32 3.92 3.92 0 0 1 2.22 1.5 4.43 4.43 0 0 1 .73 2.58 4.49 4.49 0 0 1 -.47 2.1 4.14 4.14 0 0 1 -1.27 1.45 5.77 5.77 0 0 1 -1.83.83 8.17 8.17 0 0 1 -2.1.27h-7.79v-16.03zm-.45 6.5a2.57 2.57 0 0 0 1.56-.45 1.71 1.71 0 0 0 .6-1.46 1.86 1.86 0 0 0 -.2-.93 1.53 1.53 0 0 0 -.54-.56 2.27 2.27 0 0 0 -.77-.28 5.5 5.5 0 0 0 -.91-.08h-3.31v3.76zm.21 6.82a5.36 5.36 0 0 0 1-.1 2.46 2.46 0 0 0 .83-.34 1.68 1.68 0 0 0 .57-.64 2.14 2.14 0 0 0 .22-1 2.08 2.08 0 0 0 -.7-1.76 2.93 2.93 0 0 0 -1.84-.53h-3.85v4.41z"/><path d="m283.87 51.4a3.27 3.27 0 0 0 3.73.22 2.06 2.06 0 0 0 .86-1h2.81a5.28 5.28 0 0 1 -2.07 3 6 6 0 0 1 -3.38.91 6.67 6.67 0 0 1 -2.47-.44 5.21 5.21 0 0 1 -1.87-1.25 5.68 5.68 0 0 1 -1.18-1.94 7 7 0 0 1 -.42-2.47 6.9 6.9 0 0 1 .43-2.43 5.75 5.75 0 0 1 1.22-2 5.53 5.53 0 0 1 1.88-1.29 5.89 5.89 0 0 1 2.41-.47 5.56 5.56 0 0 1 2.59.57 5.12 5.12 0 0 1 1.81 1.54 6.24 6.24 0 0 1 1 2.21 8.15 8.15 0 0 1 .22 2.58h-8.39a3.19 3.19 0 0 0 .82 2.26zm3.61-6.12a2.25 2.25 0 0 0 -1.75-.63 2.81 2.81 0 0 0 -1.27.26 2.5 2.5 0 0 0 -.81.64 2.42 2.42 0 0 0 -.42.81 3.06 3.06 0 0 0 -.15.77h5.2a3.73 3.73 0 0 0 -.8-1.85z"/><path d="m296.05 51.3a1.9 1.9 0 0 0 .55.61 2.51 2.51 0 0 0 .78.35 3.84 3.84 0 0 0 .91.11 3.68 3.68 0 0 0 .71-.08 2.07 2.07 0 0 0 .67-.25 1.47 1.47 0 0 0 .51-.45 1.19 1.19 0 0 0 .2-.71c0-.48-.32-.84-1-1.07a18.48 18.48 0 0 0 -2.66-.73 11.81 11.81 0 0 1 -1.36-.37 4.45 4.45 0 0 1 -1.18-.56 2.62 2.62 0 0 1 -.84-.88 2.47 2.47 0 0 1 -.31-1.29 3.48 3.48 0 0 1 .44-1.84 3.25 3.25 0 0 1 1.2-1.14 5.21 5.21 0 0 1 1.62-.59 10.34 10.34 0 0 1 3.68 0 5.15 5.15 0 0 1 1.58.61 3.71 3.71 0 0 1 1.16 1.14 3.78 3.78 0 0 1 .55 1.79h-3a1.41 1.41 0 0 0 -.7-1.25 3.18 3.18 0 0 0 -1.49-.33 4 4 0 0 0 -.58 0 2.14 2.14 0 0 0 -.58.14 1.31 1.31 0 0 0 -.44.33.84.84 0 0 0 -.17.57.87.87 0 0 0 .31.7 2.36 2.36 0 0 0 .82.44 10.75 10.75 0 0 0 1.16.3l1.33.3a12.42 12.42 0 0 1 1.36.38 4.82 4.82 0 0 1 1.18.59 3 3 0 0 1 .83.93 2.68 2.68 0 0 1 .32 1.36 3.79 3.79 0 0 1 -.46 1.92 3.71 3.71 0 0 1 -1.21 1.25 4.83 4.83 0 0 1 -1.7.66 9.6 9.6 0 0 1 -1.94.2 9.24 9.24 0 0 1 -2-.21 5.15 5.15 0 0 1 -1.72-.67 3.8 3.8 0 0 1 -1.24-1.25 4 4 0 0 1 -.53-2h3a1.78 1.78 0 0 0 .24.99z"/><path d="m311.83 42.56v2.14h-2.34v5.76a1.08 1.08 0 0 0 1.35 1.35h.52l.47-.07v2.47a6 6 0 0 1 -.9.09c-.33 0-.65 0-1 0a9 9 0 0 1 -1.4-.1 3.3 3.3 0 0 1 -1.17-.39 2.06 2.06 0 0 1 -.8-.83 3 3 0 0 1 -.29-1.42v-6.86h-1.94v-2.14h1.94v-3.49h3.19v3.49z"/><path d="m222.33 69.41a3.69 3.69 0 0 0 -.79-.89 3.59 3.59 0 0 0 -1.07-.59 3.69 3.69 0 0 0 -1.25-.22 4.08 4.08 0 0 0 -2 .47 3.72 3.72 0 0 0 -1.35 1.23 5.2 5.2 0 0 0 -.75 1.77 8.65 8.65 0 0 0 -.24 2 8.11 8.11 0 0 0 .24 2 5.12 5.12 0 0 0 .75 1.72 3.7 3.7 0 0 0 1.35 1.22 4.08 4.08 0 0 0 2 .46 3.29 3.29 0 0 0 2.54-1 4.59 4.59 0 0 0 1.11-2.58h3.42a8.06 8.06 0 0 1 -.7 2.73 6.51 6.51 0 0 1 -1.48 2.07 6.4 6.4 0 0 1 -2.11 1.3 7.94 7.94 0 0 1 -2.73.45 8.14 8.14 0 0 1 -3.31-.64 7.14 7.14 0 0 1 -2.49-1.77 7.9 7.9 0 0 1 -1.55-2.64 9.67 9.67 0 0 1 -.54-3.27 10 10 0 0 1 .54-3.34 8 8 0 0 1 1.55-2.69 7 7 0 0 1 2.49-1.8 8 8 0 0 1 3.31-.66 7.9 7.9 0 0 1 2.51.39 6.6 6.6 0 0 1 2.12 1.11 6.15 6.15 0 0 1 1.54 1.81 6.68 6.68 0 0 1 .77 2.48h-3.42a3.08 3.08 0 0 0 -.46-1.12z"/><path d="m228.43 72.86a5.41 5.41 0 0 1 1.21-1.94 5.7 5.7 0 0 1 1.89-1.24 7.21 7.21 0 0 1 5 0 5.54 5.54 0 0 1 1.9 1.24 5.44 5.44 0 0 1 1.22 1.94 7.63 7.63 0 0 1 0 5 5.44 5.44 0 0 1 -1.22 1.92 5.38 5.38 0 0 1 -1.9 1.23 7.53 7.53 0 0 1 -5 0 5.52 5.52 0 0 1 -1.89-1.23 5.42 5.42 0 0 1 -1.21-1.92 7.63 7.63 0 0 1 0-5zm2.9 3.89a3.56 3.56 0 0 0 .46 1.19 2.5 2.5 0 0 0 .87.84 2.64 2.64 0 0 0 1.35.32 2.71 2.71 0 0 0 1.36-.32 2.45 2.45 0 0 0 .88-.84 3.78 3.78 0 0 0 .46-1.19 6.82 6.82 0 0 0 .13-1.36 7 7 0 0 0 -.13-1.38 3.69 3.69 0 0 0 -.46-1.19 2.52 2.52 0 0 0 -2.25-1.17 2.55 2.55 0 0 0 -1.35.33 2.69 2.69 0 0 0 -.87.84 3.48 3.48 0 0 0 -.46 1.19 7 7 0 0 0 -.14 1.38 6.82 6.82 0 0 0 .15 1.36z"/><path d="m245.15 69.56v1.62h.06a3.59 3.59 0 0 1 1.58-1.47 4.5 4.5 0 0 1 2-.47 5.48 5.48 0 0 1 2.1.35 3.15 3.15 0 0 1 1.29 1 3.73 3.73 0 0 1 .67 1.51 9.21 9.21 0 0 1 .19 2v7.15h-3.19v-6.63a4.09 4.09 0 0 0 -.46-2.15 1.74 1.74 0 0 0 -1.59-.71 2.21 2.21 0 0 0 -1.89.78 4.31 4.31 0 0 0 -.59 2.55v6.1h-3.19v-11.63z"/><path d="m258.14 78.3a1.9 1.9 0 0 0 .55.61 2.32 2.32 0 0 0 .78.35 3.84 3.84 0 0 0 .91.11 3.5 3.5 0 0 0 .7-.08 2.12 2.12 0 0 0 .68-.25 1.57 1.57 0 0 0 .51-.45 1.19 1.19 0 0 0 .2-.71q0-.72-1-1.08a18.68 18.68 0 0 0 -2.66-.72 11.81 11.81 0 0 1 -1.36-.37 4.67 4.67 0 0 1 -1.19-.56 2.69 2.69 0 0 1 -.83-.88 2.47 2.47 0 0 1 -.31-1.29 3.45 3.45 0 0 1 .44-1.85 3.19 3.19 0 0 1 1.19-1.13 5.18 5.18 0 0 1 1.63-.59 10.07 10.07 0 0 1 1.84-.17 9.16 9.16 0 0 1 1.83.18 5.21 5.21 0 0 1 1.59.61 3.71 3.71 0 0 1 1.16 1.14 3.78 3.78 0 0 1 .55 1.79h-3a1.39 1.39 0 0 0 -.7-1.25 3.14 3.14 0 0 0 -1.48-.33 4.18 4.18 0 0 0 -.59 0 2 2 0 0 0 -.57.14 1.31 1.31 0 0 0 -.44.33.85.85 0 0 0 -.18.57.88.88 0 0 0 .32.7 2.36 2.36 0 0 0 .82.44 10.75 10.75 0 0 0 1.16.3l1.32.29c.47.11.92.24 1.37.39a4.82 4.82 0 0 1 1.18.59 3 3 0 0 1 .83.93 2.68 2.68 0 0 1 .32 1.36 3.57 3.57 0 0 1 -1.71 3.21 4.91 4.91 0 0 1 -1.7.66 9.74 9.74 0 0 1 -1.94.19 9.24 9.24 0 0 1 -2-.2 5.2 5.2 0 0 1 -1.73-.67 3.73 3.73 0 0 1 -1.76-3.2h3a1.78 1.78 0 0 0 .27.89z"/><path d="m275.41 81.19v-1.62h-.07a3.52 3.52 0 0 1 -1.58 1.43 4.62 4.62 0 0 1 -2 .45 5.71 5.71 0 0 1 -2.1-.33 3 3 0 0 1 -1.29-1 3.67 3.67 0 0 1 -.67-1.51 9.9 9.9 0 0 1 -.19-2v-7.05h3.2v6.57a4.08 4.08 0 0 0 .45 2.15 1.74 1.74 0 0 0 1.59.71 2.21 2.21 0 0 0 1.89-.78 4.31 4.31 0 0 0 .59-2.55v-6.1h3.19v11.63z"/><path d="m284.16 65.13v16.06h-3.16v-16.06z"/><path d="m293.07 69.56v2.14h-2.34v5.76a1.08 1.08 0 0 0 1.35 1.35 4.12 4.12 0 0 0 .51 0 3.5 3.5 0 0 0 .48-.06v2.47a6 6 0 0 1 -.9.09c-.33 0-.66 0-1 0a9.09 9.09 0 0 1 -1.41-.1 3.3 3.3 0 0 1 -1.17-.39 2.11 2.11 0 0 1 -.79-.83 2.93 2.93 0 0 1 -.3-1.42v-6.87h-1.9v-2.14h1.93v-3.49h3.2v3.49z"/><path d="m294.69 67.76v-2.63h3.19v2.63zm3.19 1.8v11.63h-3.19v-11.63z"/><path d="m303.44 69.56v1.62h.07a3.57 3.57 0 0 1 1.57-1.47 4.56 4.56 0 0 1 2-.47 5.5 5.5 0 0 1 2.11.35 3.15 3.15 0 0 1 1.29 1 3.72 3.72 0 0 1 .66 1.51 9.21 9.21 0 0 1 .19 2v7.15h-3.19v-6.63a4.1 4.1 0 0 0 -.45-2.15 1.75 1.75 0 0 0 -1.6-.71 2.21 2.21 0 0 0 -1.89.78 4.32 4.32 0 0 0 -.58 2.55v6.1h-3.2v-11.63z"/><path d="m324.74 82.05a3.92 3.92 0 0 1 -.83 1.67 4.82 4.82 0 0 1 -1.82 1.28 7.83 7.83 0 0 1 -3.19.54 7.67 7.67 0 0 1 -1.75-.21 5.83 5.83 0 0 1 -1.62-.67 3.94 3.94 0 0 1 -1.21-1.16 3.33 3.33 0 0 1 -.55-1.7h3.17a1.81 1.81 0 0 0 .88 1.25 3 3 0 0 0 1.5.35 2.31 2.31 0 0 0 2-.81 3.11 3.11 0 0 0 .6-2v-1.54h-.05a3.15 3.15 0 0 1 -1.47 1.37 4.81 4.81 0 0 1 -2 .43 5 5 0 0 1 -2.25-.46 4.19 4.19 0 0 1 -1.56-1.26 5.16 5.16 0 0 1 -.88-1.86 8.82 8.82 0 0 1 -.29-2.27 7.18 7.18 0 0 1 .33-2.17 5.76 5.76 0 0 1 1-1.84 4.59 4.59 0 0 1 3.71-1.75 4.51 4.51 0 0 1 2 .43 3.46 3.46 0 0 1 1.45 1.44h.05v-1.55h3v10.89a8.41 8.41 0 0 1 -.22 1.6zm-4.38-3.87a2.48 2.48 0 0 0 .85-.72 3 3 0 0 0 .51-1 4.3 4.3 0 0 0 .17-1.2 7.38 7.38 0 0 0 -.13-1.36 3.41 3.41 0 0 0 -.46-1.14 2.33 2.33 0 0 0 -.83-.79 2.66 2.66 0 0 0 -1.3-.29 2.34 2.34 0 0 0 -1.16.27 2.57 2.57 0 0 0 -.81.73 2.91 2.91 0 0 0 -.47 1.06 5.1 5.1 0 0 0 -.15 1.25 5.83 5.83 0 0 0 .13 1.25 3.37 3.37 0 0 0 .42 1.11 2.48 2.48 0 0 0 .8.81 2.26 2.26 0 0 0 1.24.32 2.52 2.52 0 0 0 1.19-.3z"/><path d="m221.54 108.07a6 6 0 0 1 -2.32.48 8.14 8.14 0 0 1 -3.31-.64 7.12 7.12 0 0 1 -2.49-1.76 8 8 0 0 1 -1.55-2.65 9.67 9.67 0 0 1 -.54-3.27 10 10 0 0 1 .54-3.34 8 8 0 0 1 1.55-2.69 7 7 0 0 1 2.49-1.8 8 8 0 0 1 3.31-.66 7.73 7.73 0 0 1 2.4.38 6.62 6.62 0 0 1 2.09 1.09 5.91 5.91 0 0 1 2.29 4.21h-3.38a3.39 3.39 0 0 0 -1.21-2 3.55 3.55 0 0 0 -2.19-.68 4.08 4.08 0 0 0 -2 .47 3.72 3.72 0 0 0 -1.35 1.23 5.2 5.2 0 0 0 -.75 1.77 8.65 8.65 0 0 0 -.24 2 8.11 8.11 0 0 0 .24 2 5.12 5.12 0 0 0 .75 1.72 3.7 3.7 0 0 0 1.35 1.22 4.08 4.08 0 0 0 2 .46 3.43 3.43 0 0 0 3.83-3.46h-3.55v-2.64h6.74v8.68h-2.24l-.37-1.82a5.24 5.24 0 0 1 -2.09 1.7z"/><path d="m231.8 96.56v2.16a4 4 0 0 1 2.54-2.29 3.77 3.77 0 0 1 1.17-.18 2.35 2.35 0 0 1 .7.11v3a5.29 5.29 0 0 0 -.54-.08h-.61a3.36 3.36 0 0 0 -1.49.29 2.46 2.46 0 0 0 -1 .8 3 3 0 0 0 -.53 1.18 6.11 6.11 0 0 0 -.04 1.45v5.24h-3.19v-11.68z"/><path d="m237.18 99.86a5.41 5.41 0 0 1 1.21-1.94 5.7 5.7 0 0 1 1.89-1.24 6.72 6.72 0 0 1 2.48-.43 6.81 6.81 0 0 1 2.49.43 5.64 5.64 0 0 1 1.9 1.24 5.41 5.41 0 0 1 1.21 1.94 7.63 7.63 0 0 1 0 5 5.26 5.26 0 0 1 -3.11 3.15 7 7 0 0 1 -2.49.43 6.93 6.93 0 0 1 -2.48-.43 5.52 5.52 0 0 1 -1.89-1.23 5.42 5.42 0 0 1 -1.21-1.92 7.63 7.63 0 0 1 0-5zm2.9 3.89a3.78 3.78 0 0 0 .46 1.19 2.53 2.53 0 0 0 .87.85 2.64 2.64 0 0 0 1.35.31 2.71 2.71 0 0 0 1.36-.31 2.47 2.47 0 0 0 .88-.85 3.56 3.56 0 0 0 .46-1.19 6.82 6.82 0 0 0 .13-1.36 7.09 7.09 0 0 0 -.13-1.38 3.56 3.56 0 0 0 -.46-1.19 2.52 2.52 0 0 0 -2.24-1.17 2.55 2.55 0 0 0 -1.35.33 2.69 2.69 0 0 0 -.87.84 3.78 3.78 0 0 0 -.46 1.19 7.09 7.09 0 0 0 -.13 1.38 6.82 6.82 0 0 0 .13 1.36z"/><path d="m258.73 108.19v-1.62h-.06a3.65 3.65 0 0 1 -1.58 1.47 4.62 4.62 0 0 1 -2 .45 5.69 5.69 0 0 1 -2.1-.34 3.14 3.14 0 0 1 -1.3-1 3.79 3.79 0 0 1 -.66-1.51 9.12 9.12 0 0 1 -.19-2v-7.08h3.19v6.57a4.07 4.07 0 0 0 .46 2.15 1.73 1.73 0 0 0 1.59.71 2.21 2.21 0 0 0 1.89-.78 4.31 4.31 0 0 0 .59-2.55v-6.1h3.19v11.63z"/><path d="m267.24 96.56v1.44a3.62 3.62 0 0 1 1.49-1.37 4.62 4.62 0 0 1 2-.42 5.1 5.1 0 0 1 2.36.51 4.9 4.9 0 0 1 1.64 1.38 5.68 5.68 0 0 1 1 2 8.81 8.81 0 0 1 .32 2.37 8 8 0 0 1 -.32 2.25 5.8 5.8 0 0 1 -1 1.91 4.66 4.66 0 0 1 -3.84 1.83 4.54 4.54 0 0 1 -2-.44 3.84 3.84 0 0 1 -1.5-1.3v5.51h-3.2v-15.67zm4.15 9.23a2.5 2.5 0 0 0 .85-.83 3.28 3.28 0 0 0 .47-1.18 6.92 6.92 0 0 0 .13-1.37 7 7 0 0 0 -.14-1.37 3.71 3.71 0 0 0 -.49-1.21 2.69 2.69 0 0 0 -.86-.85 2.75 2.75 0 0 0 -2.61 0 2.66 2.66 0 0 0 -.86.84 3.56 3.56 0 0 0 -.46 1.19 7.23 7.23 0 0 0 -.14 1.4 6.25 6.25 0 0 0 .15 1.37 3.69 3.69 0 0 0 .47 1.18 2.56 2.56 0 0 0 .87.83 2.92 2.92 0 0 0 2.62 0z"/><path d="m184.55 56.53 6.79-6.8-49.74-49.73-21.85 21.85-21.85-21.85-54.19 54.19 49.73 49.74 6.79-6.79-42.94-42.95 40.61-40.61 15.06 15.06-25.55 25.55 54.19 54.2 30.5-30.5h-.01l1.85-1.85-22.22-22.22-6.81 6.77 15.45 15.46-18.76 18.75-40.61-40.61 18.76-18.75 13.7 13.69 6.79-6.79-13.7-13.7 15.06-15.06z"/><path d="m56.53 11.25-6.8-6.79-49.73 49.73 49.73 49.74 6.8-6.79-42.95-42.95z"/></g></svg>