<svg height="5.07in" viewBox="0 0 676.8 364.92" width="9.4in" xmlns="http://www.w3.org/2000/svg"><path d="m659.38 222.92a2.88 2.88 0 0 1 -2-.78 2.59 2.59 0 0 1 -.83-2v-14.64a2.84 2.84 0 0 1 2.88-2.89h14.57a2.6 2.6 0 0 1 2 .83 2.9 2.9 0 0 1 .78 2.06v14.64a2.74 2.74 0 0 1 -.78 1.94 2.58 2.58 0 0 1 -2 .84zm-72 0a2.88 2.88 0 0 1 -2-.78 2.59 2.59 0 0 1 -.83-2v-73.23a2.57 2.57 0 0 1 .83-2 2.88 2.88 0 0 1 2-.78h15a2.88 2.88 0 0 1 2 .78 2.58 2.58 0 0 1 .84 2v24.75q6.43-7.54 17.41-7.55a22.74 22.74 0 0 1 11.45 2.89 19.82 19.82 0 0 1 8 8.54 29.78 29.78 0 0 1 2.92 13.65v30.95a2.6 2.6 0 0 1 -.84 2 2.86 2.86 0 0 1 -2 .78h-15.16a2.85 2.85 0 0 1 -2.77-2.78v-30.29c0-3.25-.82-5.79-2.44-7.6a8.92 8.92 0 0 0 -7-2.72 9.13 9.13 0 0 0 -7 2.72c-1.7 1.81-2.55 4.35-2.55 7.6v30.29a2.6 2.6 0 0 1 -.84 2 2.88 2.88 0 0 1 -2 .78zm-37.38-3.92-.51-38.7h-8.76a2.84 2.84 0 0 1 -2.78-2.77v-9.53a2.62 2.62 0 0 1 .83-2 2.78 2.78 0 0 1 2-.78h8.76v-18.31a2.6 2.6 0 0 1 .83-2 2.75 2.75 0 0 1 1.94-.78h13.65a2.67 2.67 0 0 1 2.78 2.77v18.31h9.24a2.86 2.86 0 0 1 2.05.78 2.6 2.6 0 0 1 .84 2v9.54a2.58 2.58 0 0 1 -.84 2 2.86 2.86 0 0 1 -2.05.78h-9.24v38.69a3.08 3.08 0 0 1 -3.09 3.08h-12.65a3.07 3.07 0 0 1 -3-3.08zm-32.06 3.91a2.85 2.85 0 0 1 -2.77-2.78v-52.13a2.62 2.62 0 0 1 .83-2 2.75 2.75 0 0 1 1.94-.78h13.87a2.86 2.86 0 0 1 2.05.78 2.6 2.6 0 0 1 .84 2v52.14a2.6 2.6 0 0 1 -.84 2 2.86 2.86 0 0 1 -2.05.78zm-.45-62.69a2.62 2.62 0 0 1 -2-.83 2.9 2.9 0 0 1 -.78-2.06v-10.33a2.79 2.79 0 0 1 .84-2.06 2.67 2.67 0 0 1 1.94-.83h13.87a2.84 2.84 0 0 1 2.84 2.89v10.31a2.84 2.84 0 0 1 -2.88 2.89zm-27 62.69a2.88 2.88 0 0 1 -2-.78 2.59 2.59 0 0 1 -.83-2v-73.22a2.57 2.57 0 0 1 .83-2 2.88 2.88 0 0 1 2-.78h13.87a2.65 2.65 0 0 1 2.77 2.77v73.23a2.77 2.77 0 0 1 -.77 1.94 2.61 2.61 0 0 1 -2 .84zm-38.65-12.87c3 0 5.29-1 6.77-2.83s2.33-4.79 2.55-8.71c.08-.74.11-2.22.11-4.44s0-3.7-.11-4.44q-.33-5.77-2.55-8.65t-6.77-2.89q-4.55 0-6.77 2.89t-2.55 8.65l-.11 4.44.11 4.44q.33 5.88 2.55 8.71c1.45 1.89 3.71 2.84 6.74 2.84zm0 14q-14 0-21.47-6.49t-8.15-18.48c-.08-1-.11-2.62-.11-5s0-4 .11-5q.66-11.76 8.37-18.37t21.25-6.6q13.54 0 21.25 6.6t8.38 18.37c.14 1.92.22 3.58.22 5s-.08 3.07-.22 5q-.68 12-8.16 18.48t-21.5 6.45zm-92-1.11a2.85 2.85 0 0 1 -2.77-2.78v-52.15a2.62 2.62 0 0 1 .83-2 2.77 2.77 0 0 1 1.94-.78h13.65a2.67 2.67 0 0 1 2.78 2.78v4.21a21.63 21.63 0 0 1 7.71-5.88 25.1 25.1 0 0 1 10.81-2.22 21.86 21.86 0 0 1 11.21 2.89 19.82 19.82 0 0 1 7.76 8.54 30.18 30.18 0 0 1 2.83 13.65v30.95a2.77 2.77 0 0 1 -.77 1.94 2.61 2.61 0 0 1 -2 .84h-14.75a2.88 2.88 0 0 1 -2.05-.78 2.59 2.59 0 0 1 -.83-2v-30.29q0-5-2.39-7.65t-6.93-2.67a9.13 9.13 0 0 0 -7 2.72c-1.7 1.81-2.55 4.35-2.55 7.6v30.29a2.74 2.74 0 0 1 -.78 1.94 2.6 2.6 0 0 1 -2 .84zm-38.53-12.87c3 0 5.29-1 6.77-2.83s2.33-4.79 2.55-8.71c.07-.74.11-2.22.11-4.44s0-3.7-.11-4.44c-.22-3.85-1.08-6.73-2.55-8.65s-3.74-2.89-6.77-2.89-5.29 1-6.77 2.89-2.33 4.8-2.55 8.65l-.11 4.44.11 4.44q.33 5.88 2.55 8.71c1.46 1.87 3.68 2.82 6.72 2.82zm0 14q-14 0-21.47-6.49t-8.16-18.48c-.07-1-.11-2.62-.11-5s0-4 .11-5q.67-11.76 8.38-18.37t21.25-6.6q13.53 0 21.24 6.6t8.38 18.37c.15 1.92.22 3.58.22 5s-.07 3.07-.22 5q-.66 12-8.15 18.48t-21.52 6.43zm-122.2-1.11a2.85 2.85 0 0 1 -2.77-2.78v-52.17a2.59 2.59 0 0 1 .83-2 2.74 2.74 0 0 1 1.94-.78h12.87a2.67 2.67 0 0 1 2.78 2.78v3.77a22.06 22.06 0 0 1 6.87-5.44 20.23 20.23 0 0 1 9.55-2.22q12.19 0 16.75 9.54a20.33 20.33 0 0 1 7.43-6.88 20.69 20.69 0 0 1 10.21-2.66 19.26 19.26 0 0 1 14.81 6.16q5.71 6.16 5.72 18.36v31.51a2.74 2.74 0 0 1 -.78 1.94 2.6 2.6 0 0 1 -2 .84h-13.69a2.9 2.9 0 0 1 -2.06-.78 2.62 2.62 0 0 1 -.83-2v-30.73q0-5.1-2.16-7.49a7.49 7.49 0 0 0 -5.83-2.39 7.21 7.21 0 0 0 -5.6 2.39q-2.16 2.39-2.16 7.49v30.73a2.74 2.74 0 0 1 -.78 1.94 2.6 2.6 0 0 1 -2 .84h-13.64a2.9 2.9 0 0 1 -2.06-.78 2.62 2.62 0 0 1 -.83-2v-30.73q0-5.1-2.22-7.49a7.52 7.52 0 0 0 -5.77-2.39 7.4 7.4 0 0 0 -5.66 2.39q-2.22 2.39-2.22 7.38v30.84a2.73 2.73 0 0 1 -.77 1.94 2.61 2.61 0 0 1 -2 .84z" fill-rule="evenodd"/><path d="m21 52.28 74.86 42.93a9.86 9.86 0 0 1 5 8.56v141.86a1.24 1.24 0 0 1 -.62 1.07l-81.15 46a1.23 1.23 0 0 1 -1.68-.46 1.32 1.32 0 0 1 -.16-.61l.05-237.21a2.46 2.46 0 0 1 2.46-2.42 2.41 2.41 0 0 1 1.24.28zm-3.63-9.28a3.7 3.7 0 0 0 -5.54 3.21l-.36 248.56a4.92 4.92 0 0 0 2.53 4.23l86.85 49.83a3.7 3.7 0 0 0 5.54-3.21v-244.43a12.33 12.33 0 0 0 -6.19-10.69zm136.45 27.31v262.47a12.32 12.32 0 0 1 -6.21 10.7l-34.67 19.82a12.33 12.33 0 0 1 -12.27 0l-94.5-54.51a12.33 12.33 0 0 1 -6.17-10.68v-269a12.33 12.33 0 0 1 6.48-10.84l31.16-16.79a12.34 12.34 0 0 1 12.13.24l98 58a12.33 12.33 0 0 1 6.05 10.59z"/></svg>